<svg xmlns="http://www.w3.org/2000/svg" viewBox="0 0 420 100" width="420" height="100" role="img" aria-label="DataVox — Natural Language Data Analysis">
  <!--
    DataVox — verrou pour surface CLAIRE (document, facture, papier).
    Fond transparent, « Data » en encre sombre au lieu de blanc.
    Le signe garde son disque sombre : c'est lui qui fait ressortir
    l'histogramme et l'onde, quelle que soit la surface.
  -->
  <defs>
    <linearGradient id="anneau" x1="20" y1="18" x2="80" y2="82" gradientUnits="userSpaceOnUse">
      <stop stop-color="#6db2ff"/>
      <stop offset="0.55" stop-color="#2f7ce0"/>
      <stop offset="1" stop-color="#1550ad"/>
    </linearGradient>
    <linearGradient id="onde" x1="24" y1="46" x2="76" y2="46" gradientUnits="userSpaceOnUse">
      <stop stop-color="#63e2ff"/>
      <stop offset="0.5" stop-color="#a8f0ff"/>
      <stop offset="1" stop-color="#63e2ff"/>
    </linearGradient>
  </defs>

  <g transform="translate(8, 10) scale(1.15)">
    <circle cx="32" cy="29" r="20" fill="#0b1729"/>
    <path d="M23.5 44.5C21 51 17.5 55.5 13 58.5C19.5 56 26 52.5 31 48.5Z" fill="url(#anneau)"/>
    <circle cx="32" cy="29" r="20" stroke="url(#anneau)" stroke-width="4.2" fill="none"/>

    <g fill="#6db2ff" opacity="0.5">
      <rect x="20.5" y="27" width="3.4" height="12" rx="1.5"/>
      <rect x="26" y="20" width="3.4" height="19" rx="1.5"/>
      <rect x="31.5" y="16" width="3.4" height="23" rx="1.5"/>
      <rect x="37" y="23" width="3.4" height="16" rx="1.5"/>
      <rect x="42.5" y="18.5" width="3.4" height="20.5" rx="1.5"/>
    </g>

    <path d="M15 29.5H20.5L23.5 21.5L26.5 37.5L29.5 15L33 42L36.5 22L39.5 32L42 27.5L44.5 29.5H49"
          stroke="url(#onde)" stroke-width="2.6" stroke-linecap="round" stroke-linejoin="round" fill="none"/>
  </g>

  <text x="112" y="57" font-family="Inter, 'Segoe UI', system-ui, sans-serif"
        font-size="40" font-weight="800" letter-spacing="-0.9">
    <tspan fill="#0f172a">Data</tspan><tspan fill="#1d4ed8">Vox</tspan>
  </text>
  <text x="114" y="78" font-family="Inter, 'Segoe UI', system-ui, sans-serif"
        font-size="13" font-weight="400" letter-spacing="0.3" fill="#64748b">
    Natural Language Data Analysis
  </text>
</svg>
